<?xml version="1.0" ?><!DOCTYPE svg  PUBLIC '-//W3C//DTD SVG 1.1//EN'  'http://www.w3.org/Graphics/SVG/1.1/DTD/svg11.dtd'><svg enable-background="new 0 0 153.491 230.402" height="230.402" id="Layer_1" overflow="visible" version="1.1" viewBox="0 0 153.491 230.402" width="153.491" xml:space="preserve" xmlns="http://www.w3.org/2000/svg" xmlns:xlink="http://www.w3.org/1999/xlink"><g><path d="M150.258,46.379L128.611,8.672C125.873,3.903,119.133,0,113.633,0H41.879c-5.5,0-12.347,3.84-15.214,8.533L3.45,46.519   C0.583,51.212-0.769,59.44,0.447,64.804L35.784,220.65c1.216,5.363,6.711,9.752,12.211,9.752h57.481   c5.5,0,10.995-4.389,12.211-9.752l35.338-155.846C154.241,59.44,152.996,51.149,150.258,46.379z M120.763,90.748H86.336v80.531   H66.161V90.748H31.689V71.645h34.472v-36.97h20.175v36.97h34.427V90.748z"/></g></svg>